<svg version="1.1" id="Layer_1" xmlns="http://www.w3.org/2000/svg" xlink="http://www.w3.org/1999/xlink" x="0px" y="0px" width="512px" height="512px" viewBox="0 0 512 512" enable-background="new 0 0 512 512" space="preserve" fill="#526cff"><path d="M403.659,215.39696c0.48169-3.90862,0.72571-7.89008,0.72571-11.92065	c0-53.04965-43.0014-96.05216-96.05161-96.05216c-42.6745,0-78.84839,27.83537-91.36397,66.33936	c-10.46376-5.196-22.25253-8.12004-34.73219-8.12004c-42.74756,0-77.47874,34.29636-78.20445,76.87187	C68.60182,255.90034,44,285.4317,44,319.71881c0,46.86594,45.99474,84.85724,102.73543,84.85724c41.95,0,154.39735,0,199.56718,0	C413.5159,404.57605,468,359.57025,468,304.06238C468,265.67612,441.94678,232.32281,403.659,215.39696z"></path></svg>