<svg version="1.1" id="Layer_1" xmlns="http://www.w3.org/2000/svg" xlink="http://www.w3.org/1999/xlink" x="0px" y="0px" width="512px" height="512px" viewBox="0 0 512 512" enable-background="new 0 0 512 512" space="preserve" fill="#191919"><path d="M66.35609,213.01044c0.21322,19.45752,0.93575,50.17929,3.16798,84.58841	c3.79854,58.41907,11.29253,110.36774,11.29253,110.36774l97.26434-92.57755c0,0-3.53883-46.30698,2.20496-115.47185	C180.2849,199.91716,72.58088,187.05428,66.35609,213.01044z"></path><path d="M290.42526,447.33939c25.19724-7.1373,17.83157-112.92838,17.83157-112.92838	c-69.36395,2.31607-115.44862-3.50146-115.44862-3.50146l-97.26435,92.57254c0,0,51.52227,10.05563,109.68664,16.73416	c32.8378,3.7662,77.33896,6.84525,83.58298,7.27673C289.32379,447.52432,290.13828,447.41821,290.42526,447.33939z"></path><path d="M66.30961,207.02109c0.00909,1.84824,0.02728,3.85312,0.04648,5.99339	c1.14896-4.74236,2.92646-8.04474,6.86343-13.04276c8.0134-10.15266,20.93591-12.80124,26.1138-13.49243	c26.33611-3.44588,65.21378-7.68803,104.48956-8.90671c69.36395-2.13522,115.24548,3.6217,115.24548,3.6217l97.26437-92.58262	c0,0-51.04126-9.72623-109.19653-16.56744c-37.98837-4.46043-71.5578-6.82705-90.27055-7.92448	c-1.25002-0.08387-14.71919-1.72293-27.37291,10.29212c-13.88551,13.16301-83.50008,79.23873-111.49345,105.81939	C65.35567,192.24228,66.29951,205.77513,66.30961,207.02109z"></path><path d="M295.52939,447.89517c-1.84317-0.10709-3.84399-0.21826-5.98325-0.35266	c4.79791-0.90747,8.1973-2.51923,13.36713-6.20154c10.54172-7.50308,13.82993-20.27707,14.76569-25.42764	c4.74234-26.12695,10.90247-64.74994,14.05124-103.91962c5.55887-69.17401,2.07559-115.28694,2.07559-115.28694l97.25525-92.57756	c0,0,7.207,51.46263,11.1723,109.88165c2.5748,38.16928,3.28821,71.81848,3.45496,90.56259	c0.00909,1.24597,1.0004,14.78894-11.62601,26.82117c-13.83905,13.22363-83.26666,79.49341-111.18625,106.13467	C310.2587,449.56656,296.78949,447.95984,295.52939,447.89517z"></path></svg>