<svg xmlns="http://www.w3.org/2000/svg" viewBox="0 0 512 512" fill="#ffffff" width="512" height="512"><path d="M66.356 213.01c.213 19.458.936 50.18 3.168 84.589 3.799 58.419 11.293 110.368 11.293 110.368l97.264-92.578s-3.539-46.307 2.205-115.472c-.001 0-107.705-12.863-113.93 13.093zM290.425 447.34c25.197-7.138 17.832-112.929 17.832-112.929-69.364 2.316-115.449-3.501-115.449-3.501l-97.264 92.572s51.522 10.056 109.686 16.734c32.838 3.766 77.34 6.845 83.583 7.277a6.639 6.639 0 001.612-.154z"></path><path d="M66.31 207.021c.009 1.848.027 3.853.046 5.993 1.15-4.742 2.927-8.044 6.864-13.042 8.013-10.153 20.935-12.802 26.113-13.493 26.336-3.446 65.214-7.688 104.49-8.906 69.364-2.136 115.245 3.621 115.245 3.621l97.265-92.582s-51.042-9.727-109.197-16.568c-37.988-4.46-71.558-6.827-90.27-7.924-1.25-.084-14.72-1.723-27.373 10.292-13.886 13.163-83.5 79.239-111.494 105.82-12.643 12.01-11.7 25.543-11.69 26.79zM295.53 447.895c-1.844-.107-3.845-.218-5.984-.352 4.798-.908 8.197-2.52 13.367-6.202 10.542-7.503 13.83-20.277 14.766-25.428 4.742-26.127 10.902-64.75 14.051-103.92 5.56-69.173 2.076-115.286 2.076-115.286l97.255-92.578s7.207 51.463 11.172 109.882c2.575 38.17 3.289 71.818 3.455 90.562.01 1.246 1 14.79-11.626 26.822-13.839 13.223-83.266 79.493-111.186 106.134-12.617 12.038-26.087 10.43-27.347 10.366z"></path></svg>